{
	"asset":{
		"generator":"Khronos glTF Blender I/O v3.5.30",
		"version":"2.0"
	},
	"extensionsUsed":[
		"KHR_materials_specular",
		"KHR_materials_ior"
	],
	"scene":0,
	"scenes":[
		{
			"name":"Scene",
			"nodes":[
				0
			]
		}
	],
	"nodes":[
		{
			"mesh":0,
			"name":"Text.002",
			"rotation":[
				0.7071068286895752,
				0,
				0,
				0.7071068286895752
			],
			"translation":[
				0,
				2.465376853942871,
				0
			]
		}
	],
	"materials":[
		{
			"doubleSided":true,
			"extensions":{
				"KHR_materials_specular":{
					"specularColorFactor":[
						0.42037705477998155,
						0.42037705477998155,
						0.42037705477998155
					]
				},
				"KHR_materials_ior":{
					"ior":1.4500000476837158
				}
			},
			"name":"mat_metal",
			"pbrMetallicRoughness":{
				"baseColorFactor":[
					0.800000011920929,
					0.800000011920929,
					0.800000011920929,
					1
				],
				"metallicFactor":0.9230493903160095,
				"roughnessFactor":0.10411595553159714
			}
		}
	],
	"meshes":[
		{
			"name":"Text.002",
			"primitives":[
				{
					"attributes":{
						"POSITION":0,
						"TEXCOORD_0":1,
						"NORMAL":2
					},
					"indices":3,
					"material":0
				}
			]
		}
	],
	"accessors":[
		{
			"bufferView":0,
			"componentType":5126,
			"count":12684,
			"max":[
				4.908163070678711,
				0.17000000178813934,
				2.469658136367798
			],
			"min":[
				-4.684333801269531,
				-0.17000000178813934,
				-0.5155555605888367
			],
			"type":"VEC3"
		},
		{
			"bufferView":1,
			"componentType":5126,
			"count":12684,
			"type":"VEC2"
		},
		{
			"bufferView":2,
			"componentType":5126,
			"count":12684,
			"type":"VEC3"
		},
		{
			"bufferView":3,
			"componentType":5123,
			"count":36384,
			"type":"SCALAR"
		}
	],
	"bufferViews":[
		{
			"buffer":0,
			"byteLength":152208,
			"byteOffset":0,
			"target":34962
		},
		{
			"buffer":0,
			"byteLength":101472,
			"byteOffset":152208,
			"target":34962
		},
		{
			"buffer":0,
			"byteLength":152208,
			"byteOffset":253680,
			"target":34962
		},
		{
			"buffer":0,
			"byteLength":72768,
			"byteOffset":405888,
			"target":34963
		}
	],
	"buffers":[
		{
			"byteLength":478656,
			"uri":"data:application/octet-stream;base64,"
		}
	]
}
