{
	"asset":{
		"generator":"Khronos glTF Blender I/O v3.5.30",
		"version":"2.0"
	},
	"scene":0,
	"scenes":[
		{
			"name":"Scene",
			"nodes":[
				0,
				1
			]
		}
	],
	"nodes":[
		{
			"mesh":0,
			"name":"Text"
		},
		{
			"mesh":1,
			"name":"Text.001",
			"rotation":[
				0.7071068286895752,
				0,
				0,
				0.7071068286895752
			],
			"translation":[
				0,
				2.465376853942871,
				0
			]
		}
	],
	"materials":[
		{
			"doubleSided":true,
			"name":"mat_magenta",
			"pbrMetallicRoughness":{
				"baseColorFactor":[
					0.7605246305465698,
					0,
					0.17464743554592133,
					1
				],
				"metallicFactor":0,
				"roughnessFactor":0.5
			}
		}
	],
	"meshes":[
		{
			"name":"Text",
			"primitives":[
				{
					"attributes":{
						"POSITION":0,
						"TEXCOORD_0":1,
						"NORMAL":2
					},
					"indices":3
				}
			]
		},
		{
			"name":"Text.001",
			"primitives":[
				{
					"attributes":{
						"POSITION":4,
						"TEXCOORD_0":5,
						"NORMAL":6
					},
					"indices":7,
					"material":0
				}
			]
		}
	],
	"accessors":[
		{
			"bufferView":0,
			"componentType":5126,
			"count":5349,
			"max":[
				12.111451148986816,
				0,
				3.136068344116211
			],
			"min":[
				0.010598290711641312,
				0,
				-0.525128185749054
			],
			"type":"VEC3"
		},
		{
			"bufferView":1,
			"componentType":5126,
			"count":5349,
			"type":"VEC2"
		},
		{
			"bufferView":2,
			"componentType":5126,
			"count":5349,
			"type":"VEC3"
		},
		{
			"bufferView":3,
			"componentType":5123,
			"count":15561,
			"type":"SCALAR"
		},
		{
			"bufferView":4,
			"componentType":5126,
			"count":12684,
			"max":[
				4.908163070678711,
				0.17000000178813934,
				2.469658136367798
			],
			"min":[
				-4.684333801269531,
				-0.17000000178813934,
				-0.5155555605888367
			],
			"type":"VEC3"
		},
		{
			"bufferView":5,
			"componentType":5126,
			"count":12684,
			"type":"VEC2"
		},
		{
			"bufferView":6,
			"componentType":5126,
			"count":12684,
			"type":"VEC3"
		},
		{
			"bufferView":7,
			"componentType":5123,
			"count":36384,
			"type":"SCALAR"
		}
	],
	"bufferViews":[
		{
			"buffer":0,
			"byteLength":64188,
			"byteOffset":0,
			"target":34962
		},
		{
			"buffer":0,
			"byteLength":42792,
			"byteOffset":64188,
			"target":34962
		},
		{
			"buffer":0,
			"byteLength":64188,
			"byteOffset":106980,
			"target":34962
		},
		{
			"buffer":0,
			"byteLength":31122,
			"byteOffset":171168,
			"target":34963
		},
		{
			"buffer":0,
			"byteLength":152208,
			"byteOffset":202292,
			"target":34962
		},
		{
			"buffer":0,
			"byteLength":101472,
			"byteOffset":354500,
			"target":34962
		},
		{
			"buffer":0,
			"byteLength":152208,
			"byteOffset":455972,
			"target":34962
		},
		{
			"buffer":0,
			"byteLength":72768,
			"byteOffset":608180,
			"target":34963
		}
	],
	"buffers":[
		{
			"byteLength":680948,
			"uri":"data:application/octet-stream;base64,"
		}
	]
}
