{
	"asset":{
		"generator":"Khronos glTF Blender I/O v3.5.30",
		"version":"2.0"
	},
	"scene":0,
	"scenes":[
		{
			"name":"Scene",
			"nodes":[
				0
			]
		}
	],
	"nodes":[
		{
			"mesh":0,
			"name":"Book"
		}
	],
	"materials":[
		{
			"doubleSided":true,
			"name":"mat_black",
			"pbrMetallicRoughness":{
				"baseColorTexture":{
					"index":0
				},
				"metallicFactor":0,
				"roughnessFactor":0.5
			}
		}
	],
	"meshes":[
		{
			"name":"Cube.001",
			"primitives":[
				{
					"attributes":{
						"POSITION":0,
						"TEXCOORD_0":1,
						"NORMAL":2
					},
					"indices":3,
					"material":0
				}
			]
		}
	],
	"textures":[
		{
			"sampler":0,
			"source":0
		}
	],
	"images":[
		{
			"bufferView":4,
			"mimeType":"image/png",
			"name":"mat_black Base Color"
		}
	],
	"accessors":[
		{
			"bufferView":0,
			"componentType":5126,
			"count":246,
			"max":[
				0.09580554068088531,
				0.09580554068088531,
				0.01573283039033413
			],
			"min":[
				-0.09580554068088531,
				-0.09580554068088531,
				-0.01573283039033413
			],
			"type":"VEC3"
		},
		{
			"bufferView":1,
			"componentType":5126,
			"count":246,
			"type":"VEC2"
		},
		{
			"bufferView":2,
			"componentType":5126,
			"count":246,
			"type":"VEC3"
		},
		{
			"bufferView":3,
			"componentType":5123,
			"count":564,
			"type":"SCALAR"
		}
	],
	"bufferViews":[
		{
			"buffer":0,
			"byteLength":2952,
			"byteOffset":0,
			"target":34962
		},
		{
			"buffer":0,
			"byteLength":1968,
			"byteOffset":2952,
			"target":34962
		},
		{
			"buffer":0,
			"byteLength":2952,
			"byteOffset":4920,
			"target":34962
		},
		{
			"buffer":0,
			"byteLength":1128,
			"byteOffset":7872,
			"target":34963
		},
		{
			"buffer":0,
			"byteLength":228240,
			"byteOffset":9000
		}
	],
	"samplers":[
		{
			"magFilter":9729,
			"minFilter":9987
		}
	],
	"buffers":[
		{
			"byteLength":237240,
			"uri":"data:application/octet-stream;base64,"
		}
	]
}
