{
	"asset":{
		"generator":"Khronos glTF Blender I/O v3.5.30",
		"version":"2.0"
	},
	"scene":0,
	"scenes":[
		{
			"name":"Scene",
			"nodes":[
				0
			]
		}
	],
	"nodes":[
		{
			"mesh":0,
			"name":"Cube.002"
		}
	],
	"materials":[
		{
			"doubleSided":true,
			"name":"mat_wale",
			"pbrMetallicRoughness":{
				"baseColorTexture":{
					"index":0
				},
				"metallicFactor":0,
				"roughnessFactor":0.5
			}
		}
	],
	"meshes":[
		{
			"name":"Cube.003",
			"primitives":[
				{
					"attributes":{
						"POSITION":0,
						"TEXCOORD_0":1,
						"NORMAL":2
					},
					"indices":3,
					"material":0
				}
			]
		}
	],
	"textures":[
		{
			"sampler":0,
			"source":0
		}
	],
	"images":[
		{
			"bufferView":4,
			"mimeType":"image/png",
			"name":"wale_DIFF"
		}
	],
	"accessors":[
		{
			"bufferView":0,
			"componentType":5126,
			"count":5806,
			"max":[
				4.9548845291137695,
				2.882951021194458,
				4.033807754516602
			],
			"min":[
				-6.664248943328857,
				-1.5938701629638672,
				-4.033807754516602
			],
			"type":"VEC3"
		},
		{
			"bufferView":1,
			"componentType":5126,
			"count":5806,
			"type":"VEC2"
		},
		{
			"bufferView":2,
			"componentType":5126,
			"count":5806,
			"type":"VEC3"
		},
		{
			"bufferView":3,
			"componentType":5123,
			"count":30096,
			"type":"SCALAR"
		}
	],
	"bufferViews":[
		{
			"buffer":0,
			"byteLength":69672,
			"byteOffset":0,
			"target":34962
		},
		{
			"buffer":0,
			"byteLength":46448,
			"byteOffset":69672,
			"target":34962
		},
		{
			"buffer":0,
			"byteLength":69672,
			"byteOffset":116120,
			"target":34962
		},
		{
			"buffer":0,
			"byteLength":60192,
			"byteOffset":185792,
			"target":34963
		},
		{
			"buffer":0,
			"byteLength":216525,
			"byteOffset":245984
		}
	],
	"samplers":[
		{
			"magFilter":9729,
			"minFilter":9987
		}
	],
	"buffers":[
		{
			"byteLength":462512,
			"uri":"data:application/octet-stream;base64,"
		}
	]
}
