{
	"asset":{
		"generator":"Khronos glTF Blender I/O v3.5.30",
		"version":"2.0"
	},
	"extensionsUsed":[
		"KHR_materials_specular",
		"KHR_materials_ior"
	],
	"scene":0,
	"scenes":[
		{
			"name":"Scene",
			"nodes":[
				0
			]
		}
	],
	"nodes":[
		{
			"mesh":0,
			"name":"Stand"
		}
	],
	"materials":[
		{
			"doubleSided":true,
			"name":"mat_metal",
			"pbrMetallicRoughness":{
				"baseColorFactor":[
					0.027647558599710464,
					0.027647558599710464,
					0.027647558599710464,
					1
				],
				"metallicFactor":0,
				"roughnessFactor":0.5
			}
		},
		{
			"doubleSided":true,
			"name":"mat_red",
			"pbrMetallicRoughness":{
				"baseColorFactor":[
					0.7605246305465698,
					0,
					0.17464743554592133,
					1
				],
				"metallicFactor":0,
				"roughnessFactor":0.5
			}
		},
		{
			"alphaMode":"BLEND",
			"doubleSided":true,
			"name":"mat_glass",
			"pbrMetallicRoughness":{
				"baseColorFactor":[
					0.800000011920929,
					0.800000011920929,
					0.800000011920929,
					0.0787401869893074
				],
				"metallicFactor":0,
				"roughnessFactor":0.5
			}
		},
		{
			"alphaCutoff":0.28301888704299927,
			"alphaMode":"MASK",
			"doubleSided":true,
			"extensions":{
				"KHR_materials_specular":{
					"specularColorFactor":[
						0,
						0,
						0
					]
				},
				"KHR_materials_ior":{
					"ior":1.4500000476837158
				}
			},
			"name":"mat_baseTexture",
			"pbrMetallicRoughness":{
				"baseColorTexture":{
					"index":0
				},
				"metallicFactor":0
			}
		}
	],
	"meshes":[
		{
			"name":"Cube",
			"primitives":[
				{
					"attributes":{
						"POSITION":0,
						"TEXCOORD_0":1,
						"NORMAL":2
					},
					"indices":3,
					"material":0
				},
				{
					"attributes":{
						"POSITION":4,
						"TEXCOORD_0":5,
						"NORMAL":6
					},
					"indices":7,
					"material":1
				},
				{
					"attributes":{
						"POSITION":8,
						"TEXCOORD_0":9,
						"NORMAL":10
					},
					"indices":11,
					"material":2
				},
				{
					"attributes":{
						"POSITION":12,
						"TEXCOORD_0":13,
						"NORMAL":14
					},
					"indices":15,
					"material":3
				}
			]
		}
	],
	"textures":[
		{
			"sampler":0,
			"source":0
		}
	],
	"images":[
		{
			"bufferView":16,
			"mimeType":"image/png",
			"name":"towel_DIFF"
		}
	],
	"accessors":[
		{
			"bufferView":0,
			"componentType":5126,
			"count":2525,
			"max":[
				0.2390647679567337,
				1.8352882862091064,
				0.3699520230293274
			],
			"min":[
				-0.23158200085163116,
				-0.0021637603640556335,
				-0.34625905752182007
			],
			"type":"VEC3"
		},
		{
			"bufferView":1,
			"componentType":5126,
			"count":2525,
			"type":"VEC2"
		},
		{
			"bufferView":2,
			"componentType":5126,
			"count":2525,
			"type":"VEC3"
		},
		{
			"bufferView":3,
			"componentType":5123,
			"count":6978,
			"type":"SCALAR"
		},
		{
			"bufferView":4,
			"componentType":5126,
			"count":48,
			"max":[
				0.11416277289390564,
				1.8497884273529053,
				0.23598450422286987
			],
			"min":[
				-0.11416277289390564,
				1.1404645442962646,
				-0.23598448932170868
			],
			"type":"VEC3"
		},
		{
			"bufferView":5,
			"componentType":5126,
			"count":48,
			"type":"VEC2"
		},
		{
			"bufferView":6,
			"componentType":5126,
			"count":48,
			"type":"VEC3"
		},
		{
			"bufferView":7,
			"componentType":5123,
			"count":84,
			"type":"SCALAR"
		},
		{
			"bufferView":8,
			"componentType":5126,
			"count":4,
			"max":[
				0.10956607013940811,
				1.8323414325714111,
				0.2185375839471817
			],
			"min":[
				0.10956607013940811,
				1.1579115390777588,
				-0.2185375839471817
			],
			"type":"VEC3"
		},
		{
			"bufferView":9,
			"componentType":5126,
			"count":4,
			"type":"VEC2"
		},
		{
			"bufferView":10,
			"componentType":5126,
			"count":4,
			"type":"VEC3"
		},
		{
			"bufferView":11,
			"componentType":5123,
			"count":6,
			"type":"SCALAR"
		},
		{
			"bufferView":12,
			"componentType":5126,
			"count":3031,
			"max":[
				0.11218918114900589,
				1.8351263999938965,
				0.20212683081626892
			],
			"min":[
				-0.009812374599277973,
				1.1695363521575928,
				-0.20212683081626892
			],
			"type":"VEC3"
		},
		{
			"bufferView":13,
			"componentType":5126,
			"count":3031,
			"type":"VEC2"
		},
		{
			"bufferView":14,
			"componentType":5126,
			"count":3031,
			"type":"VEC3"
		},
		{
			"bufferView":15,
			"componentType":5123,
			"count":12300,
			"type":"SCALAR"
		}
	],
	"bufferViews":[
		{
			"buffer":0,
			"byteLength":30300,
			"byteOffset":0,
			"target":34962
		},
		{
			"buffer":0,
			"byteLength":20200,
			"byteOffset":30300,
			"target":34962
		},
		{
			"buffer":0,
			"byteLength":30300,
			"byteOffset":50500,
			"target":34962
		},
		{
			"buffer":0,
			"byteLength":13956,
			"byteOffset":80800,
			"target":34963
		},
		{
			"buffer":0,
			"byteLength":576,
			"byteOffset":94756,
			"target":34962
		},
		{
			"buffer":0,
			"byteLength":384,
			"byteOffset":95332,
			"target":34962
		},
		{
			"buffer":0,
			"byteLength":576,
			"byteOffset":95716,
			"target":34962
		},
		{
			"buffer":0,
			"byteLength":168,
			"byteOffset":96292,
			"target":34963
		},
		{
			"buffer":0,
			"byteLength":48,
			"byteOffset":96460,
			"target":34962
		},
		{
			"buffer":0,
			"byteLength":32,
			"byteOffset":96508,
			"target":34962
		},
		{
			"buffer":0,
			"byteLength":48,
			"byteOffset":96540,
			"target":34962
		},
		{
			"buffer":0,
			"byteLength":12,
			"byteOffset":96588,
			"target":34963
		},
		{
			"buffer":0,
			"byteLength":36372,
			"byteOffset":96600,
			"target":34962
		},
		{
			"buffer":0,
			"byteLength":24248,
			"byteOffset":132972,
			"target":34962
		},
		{
			"buffer":0,
			"byteLength":36372,
			"byteOffset":157220,
			"target":34962
		},
		{
			"buffer":0,
			"byteLength":24600,
			"byteOffset":193592,
			"target":34963
		},
		{
			"buffer":0,
			"byteLength":113321,
			"byteOffset":218192
		}
	],
	"samplers":[
		{
			"magFilter":9729,
			"minFilter":9987
		}
	],
	"buffers":[
		{
			"byteLength":331516,
			"uri":"data:application/octet-stream;base64,"
		}
	]
}
