{
	"asset":{
		"generator":"Khronos glTF Blender I/O v3.5.30",
		"version":"2.0"
	},
	"extensionsUsed":[
		"KHR_materials_specular",
		"KHR_materials_ior"
	],
	"scene":0,
	"scenes":[
		{
			"name":"Scene",
			"nodes":[
				0,
				1,
				2,
				3,
				4
			]
		}
	],
	"nodes":[
		{
			"mesh":0,
			"name":"Box",
			"translation":[
				0,
				0.3635391891002655,
				0
			]
		},
		{
			"mesh":1,
			"name":"Hammer",
			"scale":[
				1.9262304306030273,
				1.2371532917022705,
				1.9262304306030273
			],
			"translation":[
				-0.003439221065491438,
				0.44442421197891235,
				0.3109126687049866
			]
		},
		{
			"mesh":2,
			"name":"Chain",
			"rotation":[
				0,
				0,
				-0.5651583671569824,
				0.8249824643135071
			],
			"translation":[
				-0.00013926485553383827,
				0.24874259531497955,
				0.31141963601112366
			]
		},
		{
			"mesh":3,
			"name":"TowelHolder",
			"scale":[
				0.9752649664878845,
				0.9752649664878845,
				0.9752649664878845
			],
			"translation":[
				0.0007372959516942501,
				0.4163494408130646,
				-2.033234341070056e-05
			]
		},
		{
			"mesh":4,
			"name":"Towel",
			"scale":[
				2.340864896774292,
				2.340864896774292,
				2.340864896774292
			],
			"translation":[
				0.044837914407253265,
				0.5238090753555298,
				-0.0016236811643466353
			]
		}
	],
	"materials":[
		{
			"doubleSided":true,
			"name":"mat_red",
			"pbrMetallicRoughness":{
				"baseColorFactor":[
					0.7605246305465698,
					0,
					0.17464743554592133,
					1
				],
				"metallicFactor":0,
				"roughnessFactor":0.5
			}
		},
		{
			"alphaMode":"BLEND",
			"doubleSided":true,
			"name":"mat_glass",
			"pbrMetallicRoughness":{
				"baseColorFactor":[
					0.800000011920929,
					0.800000011920929,
					0.800000011920929,
					0.0787401869893074
				],
				"metallicFactor":0,
				"roughnessFactor":0.5
			}
		},
		{
			"doubleSided":true,
			"name":"mat_metal",
			"pbrMetallicRoughness":{
				"baseColorFactor":[
					0.027647558599710464,
					0.027647558599710464,
					0.027647558599710464,
					1
				],
				"metallicFactor":0,
				"roughnessFactor":0.5
			}
		},
		{
			"alphaCutoff":0.28301888704299927,
			"alphaMode":"MASK",
			"doubleSided":true,
			"extensions":{
				"KHR_materials_specular":{
					"specularColorFactor":[
						0,
						0,
						0
					]
				},
				"KHR_materials_ior":{
					"ior":1.4500000476837158
				}
			},
			"name":"mat_baseTexture",
			"pbrMetallicRoughness":{
				"baseColorTexture":{
					"index":0
				},
				"metallicFactor":0
			}
		}
	],
	"meshes":[
		{
			"name":"Cube.001",
			"primitives":[
				{
					"attributes":{
						"POSITION":0,
						"TEXCOORD_0":1,
						"NORMAL":2
					},
					"indices":3,
					"material":0
				},
				{
					"attributes":{
						"POSITION":4,
						"TEXCOORD_0":5,
						"NORMAL":6
					},
					"indices":7,
					"material":1
				},
				{
					"attributes":{
						"POSITION":8,
						"TEXCOORD_0":9,
						"NORMAL":10
					},
					"indices":11,
					"material":2
				},
				{
					"attributes":{
						"POSITION":12,
						"TEXCOORD_0":13,
						"NORMAL":14
					},
					"indices":15,
					"material":3
				}
			]
		},
		{
			"name":"Cylinder.001",
			"primitives":[
				{
					"attributes":{
						"POSITION":16,
						"TEXCOORD_0":17,
						"NORMAL":18
					},
					"indices":19,
					"material":2
				}
			]
		},
		{
			"name":"Torus",
			"primitives":[
				{
					"attributes":{
						"POSITION":20,
						"TEXCOORD_0":21,
						"NORMAL":22
					},
					"indices":23,
					"material":2
				}
			]
		},
		{
			"name":"Cube.004",
			"primitives":[
				{
					"attributes":{
						"POSITION":24,
						"TEXCOORD_0":25,
						"NORMAL":26
					},
					"indices":27,
					"material":2
				}
			]
		},
		{
			"name":"Plane",
			"primitives":[
				{
					"attributes":{
						"POSITION":28,
						"TEXCOORD_0":29,
						"NORMAL":30
					},
					"indices":31,
					"material":3
				}
			]
		}
	],
	"textures":[
		{
			"sampler":0,
			"source":0
		}
	],
	"images":[
		{
			"bufferView":16,
			"mimeType":"image/png",
			"name":"towel_DIFF"
		}
	],
	"accessors":[
		{
			"bufferView":0,
			"componentType":5126,
			"count":48,
			"max":[
				0.11416275799274445,
				0.35466185212135315,
				0.23598447442054749
			],
			"min":[
				-0.11416275799274445,
				-0.35466185212135315,
				-0.23598447442054749
			],
			"type":"VEC3"
		},
		{
			"bufferView":1,
			"componentType":5126,
			"count":48,
			"type":"VEC2"
		},
		{
			"bufferView":2,
			"componentType":5126,
			"count":48,
			"type":"VEC3"
		},
		{
			"bufferView":3,
			"componentType":5123,
			"count":84,
			"type":"SCALAR"
		},
		{
			"bufferView":4,
			"componentType":5126,
			"count":4,
			"max":[
				0.10956605523824692,
				0.33721494674682617,
				0.2185375690460205
			],
			"min":[
				0.10956605523824692,
				-0.33721494674682617,
				-0.2185375690460205
			],
			"type":"VEC3"
		},
		{
			"bufferView":5,
			"componentType":5126,
			"count":4,
			"type":"VEC2"
		},
		{
			"bufferView":6,
			"componentType":5126,
			"count":4,
			"type":"VEC3"
		},
		{
			"bufferView":7,
			"componentType":5123,
			"count":6,
			"type":"SCALAR"
		},
		{
			"bufferView":8,
			"componentType":5126,
			"count":297,
			"max":[
				0.04443539306521416,
				0.2823083698749542,
				0.34060409665107727
			],
			"min":[
				-0.04485005885362625,
				0.1930229216814041,
				0.2305207997560501
			],
			"type":"VEC3"
		},
		{
			"bufferView":9,
			"componentType":5126,
			"count":297,
			"type":"VEC2"
		},
		{
			"bufferView":10,
			"componentType":5126,
			"count":297,
			"type":"VEC3"
		},
		{
			"bufferView":11,
			"componentType":5123,
			"count":876,
			"type":"SCALAR"
		},
		{
			"bufferView":12,
			"componentType":5126,
			"count":8,
			"max":[
				0.11218917369842529,
				0.3400000333786011,
				0.20212681591510773
			],
			"min":[
				0.11056972295045853,
				-0.3255902826786041,
				-0.20212681591510773
			],
			"type":"VEC3"
		},
		{
			"bufferView":13,
			"componentType":5126,
			"count":8,
			"type":"VEC2"
		},
		{
			"bufferView":14,
			"componentType":5126,
			"count":8,
			"type":"VEC3"
		},
		{
			"bufferView":15,
			"componentType":5123,
			"count":12,
			"type":"SCALAR"
		},
		{
			"bufferView":17,
			"componentType":5126,
			"count":292,
			"max":[
				0.05181447044014931,
				0.20957504212856293,
				0.030650172382593155
			],
			"min":[
				-0.05181444063782692,
				-0.14999999105930328,
				-0.030650148168206215
			],
			"type":"VEC3"
		},
		{
			"bufferView":18,
			"componentType":5126,
			"count":292,
			"type":"VEC2"
		},
		{
			"bufferView":19,
			"componentType":5126,
			"count":292,
			"type":"VEC3"
		},
		{
			"bufferView":20,
			"componentType":5123,
			"count":912,
			"type":"SCALAR"
		},
		{
			"bufferView":21,
			"componentType":5126,
			"count":747,
			"max":[
				0.1663348376750946,
				0.012189159169793129,
				0.014623972587287426
			],
			"min":[
				-0.01500005554407835,
				-0.07188209146261215,
				-0.08107993006706238
			],
			"type":"VEC3"
		},
		{
			"bufferView":22,
			"componentType":5126,
			"count":747,
			"type":"VEC2"
		},
		{
			"bufferView":23,
			"componentType":5126,
			"count":747,
			"type":"VEC3"
		},
		{
			"bufferView":24,
			"componentType":5123,
			"count":3492,
			"type":"SCALAR"
		},
		{
			"bufferView":25,
			"componentType":5126,
			"count":554,
			"max":[
				0.06542950123548508,
				0.27822378277778625,
				0.09085872024297714
			],
			"min":[
				-0.0917443186044693,
				0.07545021921396255,
				-0.09699815511703491
			],
			"type":"VEC3"
		},
		{
			"bufferView":26,
			"componentType":5126,
			"count":554,
			"type":"VEC2"
		},
		{
			"bufferView":27,
			"componentType":5126,
			"count":554,
			"type":"VEC3"
		},
		{
			"bufferView":28,
			"componentType":5123,
			"count":1590,
			"type":"SCALAR"
		},
		{
			"bufferView":29,
			"componentType":5126,
			"count":10308,
			"max":[
				0.019199755042791367,
				0.013654674403369427,
				0.05559979006648064
			],
			"min":[
				-0.02260524034500122,
				-0.15930786728858948,
				-0.05719851329922676
			],
			"type":"VEC3"
		},
		{
			"bufferView":30,
			"componentType":5126,
			"count":10308,
			"type":"VEC2"
		},
		{
			"bufferView":31,
			"componentType":5126,
			"count":10308,
			"type":"VEC3"
		},
		{
			"bufferView":32,
			"componentType":5123,
			"count":58806,
			"type":"SCALAR"
		}
	],
	"bufferViews":[
		{
			"buffer":0,
			"byteLength":576,
			"byteOffset":0,
			"target":34962
		},
		{
			"buffer":0,
			"byteLength":384,
			"byteOffset":576,
			"target":34962
		},
		{
			"buffer":0,
			"byteLength":576,
			"byteOffset":960,
			"target":34962
		},
		{
			"buffer":0,
			"byteLength":168,
			"byteOffset":1536,
			"target":34963
		},
		{
			"buffer":0,
			"byteLength":48,
			"byteOffset":1704,
			"target":34962
		},
		{
			"buffer":0,
			"byteLength":32,
			"byteOffset":1752,
			"target":34962
		},
		{
			"buffer":0,
			"byteLength":48,
			"byteOffset":1784,
			"target":34962
		},
		{
			"buffer":0,
			"byteLength":12,
			"byteOffset":1832,
			"target":34963
		},
		{
			"buffer":0,
			"byteLength":3564,
			"byteOffset":1844,
			"target":34962
		},
		{
			"buffer":0,
			"byteLength":2376,
			"byteOffset":5408,
			"target":34962
		},
		{
			"buffer":0,
			"byteLength":3564,
			"byteOffset":7784,
			"target":34962
		},
		{
			"buffer":0,
			"byteLength":1752,
			"byteOffset":11348,
			"target":34963
		},
		{
			"buffer":0,
			"byteLength":96,
			"byteOffset":13100,
			"target":34962
		},
		{
			"buffer":0,
			"byteLength":64,
			"byteOffset":13196,
			"target":34962
		},
		{
			"buffer":0,
			"byteLength":96,
			"byteOffset":13260,
			"target":34962
		},
		{
			"buffer":0,
			"byteLength":24,
			"byteOffset":13356,
			"target":34963
		},
		{
			"buffer":0,
			"byteLength":113321,
			"byteOffset":13380
		},
		{
			"buffer":0,
			"byteLength":3504,
			"byteOffset":126704,
			"target":34962
		},
		{
			"buffer":0,
			"byteLength":2336,
			"byteOffset":130208,
			"target":34962
		},
		{
			"buffer":0,
			"byteLength":3504,
			"byteOffset":132544,
			"target":34962
		},
		{
			"buffer":0,
			"byteLength":1824,
			"byteOffset":136048,
			"target":34963
		},
		{
			"buffer":0,
			"byteLength":8964,
			"byteOffset":137872,
			"target":34962
		},
		{
			"buffer":0,
			"byteLength":5976,
			"byteOffset":146836,
			"target":34962
		},
		{
			"buffer":0,
			"byteLength":8964,
			"byteOffset":152812,
			"target":34962
		},
		{
			"buffer":0,
			"byteLength":6984,
			"byteOffset":161776,
			"target":34963
		},
		{
			"buffer":0,
			"byteLength":6648,
			"byteOffset":168760,
			"target":34962
		},
		{
			"buffer":0,
			"byteLength":4432,
			"byteOffset":175408,
			"target":34962
		},
		{
			"buffer":0,
			"byteLength":6648,
			"byteOffset":179840,
			"target":34962
		},
		{
			"buffer":0,
			"byteLength":3180,
			"byteOffset":186488,
			"target":34963
		},
		{
			"buffer":0,
			"byteLength":123696,
			"byteOffset":189668,
			"target":34962
		},
		{
			"buffer":0,
			"byteLength":82464,
			"byteOffset":313364,
			"target":34962
		},
		{
			"buffer":0,
			"byteLength":123696,
			"byteOffset":395828,
			"target":34962
		},
		{
			"buffer":0,
			"byteLength":117612,
			"byteOffset":519524,
			"target":34963
		}
	],
	"samplers":[
		{
			"magFilter":9729,
			"minFilter":9987
		}
	],
	"buffers":[
		{
			"byteLength":637136,
			"uri":"data:application/octet-stream;base64,"
		}
	]
}
